# xmcd
#
# Track frame offsets:
#	187
#	16947
#	28450
#	42340
#	59535
#	74930
#	88597
#	98075
#	116275
#	134997
#	153055
#	170842
#
# Disc length: 2495 seconds
#
# Revision: 5
# Processed by: cddbd v1.5.1PL2 Copyright (c) Steve Scherf et al.
# Submitted via: dBpowerAMP V4.0
#
DISCID=ae09bd0c
DTITLE=Various Artist - 8 Seconds
DYEAR=1994
DGENRE=Soundtrack
TTITLE0=John Anderson - Burnin' Up The Road
TTITLE1=Pam Tillis - Pull Your Hat Down Tight
TTITLE2=McBride and The Ride - No More Cyrin'
TTITLE3=Karla Bonoff - Standing Right Next To Me
TTITLE4=Brooks and Dunn - Ride 'em High, Ride 'em Low
TTITLE5=David Lee Murphy - Just Once
TTITLE6=Vince Gill - When Will I Be Loved
TTITLE7=Reba McEntire - If I Had Only Known
TTITLE8=Mark Chesnutt - Texas is Bigger Than It Used to Be
TTITLE9=Patty Smyth - You Hung the Moon
TTITLE10=Billy Dean - Once in a While
TTITLE11=Bill Conti - Lane's Theme
EXTD=
EXTT0=
EXTT1=
EXTT2=
EXTT3=
EXTT4=
EXTT5=
EXTT6=
EXTT7=
EXTT8=
EXTT9=
EXTT10=
EXTT11=
PLAYORDER=
